<svg xmlns="http://www.w3.org/2000/svg" viewBox="0 0 100 100" width="100%" height="100%">
  <style>
    .cube-d { fill: #1b2a4a; }
    .cube-l { fill: #4a6d9c; }
    .stroke-line { stroke: #ffffff; stroke-width: 2; stroke-linejoin: round; fill: none; }
  </style>
  <rect width="100" height="100" fill="#11141a" rx="15"/>
  
  <g transform="translate(15, 15)">
    <path d="M 35 10 L 65 25 L 35 40 L 5 25 Z" class="cube-l" />
    <path d="M 23 19 L 47 31 L 35 37 L 11 25 Z" fill="#11141a" />
    <path d="M 5 25 L 35 40 L 35 70 L 5 55 Z" class="cube-d" />
    <path d="M 35 40 L 65 25 L 65 55 L 35 70 Z" class="cube-d" />
    <path d="M 35 10 L 5 25 L 35 40 L 65 25 Z" class="stroke-line" />
    <path d="M 5 25 L 5 55 L 35 70 L 35 40 Z" class="stroke-line" />
    <path d="M 65 25 L 65 55 L 35 70" class="stroke-line" />
  </g>
</svg>
